# xmcd
#
# Track frame offsets: 
#        150
#        24442
#        59510
#        70105
#        89955
#        105752
#        121942
#        146432
#        173475
#
# Disc length: 2740 seconds
#
# Revision: 8
# Processed by: cddbd v1.5.2PL0 Copyright (c) Steve Scherf et al.
# Submitted via: ExactAudioCopy v1.0b3
#
DISCID=710ab209
DTITLE=Waters, Muddy - Hard again
DYEAR=1977
DGENRE=Blues, Chicago Blues
TTITLE0=Mannish boy
TTITLE1=Bus driver
TTITLE2=I want to be loved
TTITLE3=Jealous hearted man
TTITLE4=I can't be satisfied
TTITLE5=The blues had a baby and they named it rock and roll (#2)
TTITLE6=Deep down in Florida
TTITLE7=Crosseyed cat
TTITLE8=Little girl
EXTD=
EXTT0=
EXTT1=
EXTT2=
EXTT3=
EXTT4=
EXTT5=
EXTT6=
EXTT7=
EXTT8=
PLAYORDER=
